<?xml version="1.0" standalone="no"?>
<!DOCTYPE svg PUBLIC "-//W3C//DTD SVG 20010904//EN"
 "http://www.w3.org/TR/2001/REC-SVG-20010904/DTD/svg10.dtd">
<svg version="1.0" xmlns="http://www.w3.org/2000/svg"
 width="1000.000000pt" height="1000.000000pt" viewBox="0 0 1000.000000 1000.000000"
 preserveAspectRatio="xMidYMid meet">
<metadata>
Created by potrace 1.14, written by Peter Selinger 2001-2017
</metadata>
<g transform="translate(0.000000,1000.000000) scale(0.100000,-0.100000)"
fill="#000000" stroke="none">
<path d="M4868 9935 c-1 -1 -30 -5 -63 -9 -54 -5 -87 -10 -150 -21 -89 -15
-209 -49 -295 -82 -8 -4 -17 -7 -20 -7 -3 -1 -15 -7 -27 -14 -13 -7 -23 -9
-23 -5 0 4 -4 3 -8 -3 -4 -6 -31 -21 -59 -34 -29 -13 -53 -27 -53 -31 0 -4
-10 -11 -22 -15 -13 -4 -42 -21 -66 -38 -56 -39 -242 -220 -242 -235 0 -6 -3
-11 -7 -11 -7 0 -59 -75 -100 -145 -49 -82 -143 -310 -156 -380 -2 -11 -7 -27
-10 -35 -3 -8 -8 -28 -11 -45 -3 -16 -10 -48 -15 -70 -5 -22 -12 -60 -16 -85
-3 -25 -8 -58 -11 -75 -9 -51 -15 -107 -18 -175 -3 -50 -7 -66 -20 -68 -19 -4
-21 -36 -5 -113 6 -30 12 -63 13 -74 8 -54 96 -197 157 -255 49 -46 89 -80 95
-80 3 0 25 -13 49 -30 24 -16 48 -30 54 -30 5 0 16 -6 23 -12 7 -7 29 -19 48
-26 86 -33 204 -72 232 -77 17 -3 35 -8 39 -10 14 -10 214 -45 225 -41 7 3 15
2 18 -2 8 -7 22 -10 96 -17 30 -3 71 -7 90 -9 238 -27 759 -22 990 8 25 3 63
8 85 11 22 3 51 7 65 10 14 3 45 8 70 11 25 3 48 8 53 11 4 2 20 7 35 9 21 4
71 17 112 29 3 1 19 5 35 10 69 18 257 102 263 117 2 4 9 8 14 8 13 0 100 65
143 106 62 61 145 187 145 221 0 6 4 13 9 15 9 3 18 60 26 165 3 41 1 51 -9
47 -16 -6 -22 21 -22 98 1 32 -2 58 -6 58 -4 0 -6 8 -6 18 0 9 -2 35 -5 57 -4
22 -9 55 -11 73 -5 32 -20 110 -30 161 -3 13 -13 49 -22 80 -9 31 -17 61 -18
66 -1 6 -8 21 -16 35 -7 14 -12 25 -10 25 8 0 -26 87 -66 168 -108 222 -285
421 -469 530 -56 33 -210 105 -230 107 -3 0 -25 9 -50 20 -25 11 -45 18 -45
15 0 -2 -15 1 -32 6 -46 14 -144 36 -198 43 -25 3 -56 9 -70 12 -26 6 -466 15
-472 9z"/>
<path d="M3919 7556 c-2 -2 -17 -6 -34 -8 -55 -7 -143 -56 -197 -110 -73 -71
-115 -159 -123 -253 -2 -16 -4 -32 -5 -35 -1 -3 -2 -9 0 -15 1 -5 4 -32 6 -59
3 -27 8 -55 12 -60 3 -6 7 -17 8 -24 9 -56 121 -183 192 -219 39 -19 40 -20
21 -34 -69 -49 -187 -162 -244 -234 -22 -27 -43 -52 -47 -55 -11 -9 -81 -120
-110 -175 -63 -118 -126 -303 -113 -325 3 -6 2 -10 -2 -10 -5 0 -9 -8 -10 -17
-5 -89 -13 -119 -35 -136 -73 -58 -129 -119 -201 -218 -105 -145 -142 -195
-149 -197 -4 -2 -8 -10 -8 -18 0 -8 -4 -14 -10 -14 -5 0 -10 -5 -10 -11 0 -6
-7 -17 -15 -25 -8 -8 -33 -41 -56 -74 l-42 -60 -51 5 c-28 2 -87 7 -131 10
-44 4 -98 8 -120 11 -22 2 -69 6 -105 9 -36 3 -81 7 -100 10 -19 2 -73 7 -120
11 -47 4 -101 8 -120 10 -19 1 -66 5 -105 9 -38 3 -90 7 -115 10 -51 5 -175
15 -235 20 -37 3 -84 7 -220 20 -27 2 -84 7 -125 10 -41 3 -95 8 -120 11 -69
7 -172 16 -200 16 -57 2 -55 5 -53 -99 1 -54 5 -269 8 -478 3 -209 8 -483 10
-610 2 -126 6 -392 9 -590 4 -198 9 -502 12 -675 3 -173 7 -436 9 -585 2 -148
6 -282 8 -297 2 -16 0 -28 -5 -28 -5 0 -5 -8 1 -18 6 -11 6 -24 0 -34 -5 -9
-6 -19 -2 -21 5 -3 8 -44 8 -91 -1 -53 3 -86 10 -87 5 0 17 -2 25 -3 8 -2 53
-6 100 -10 47 -4 110 -10 140 -12 30 -3 82 -7 115 -9 33 -3 83 -7 110 -9 28
-3 79 -7 115 -10 75 -6 159 -14 245 -22 78 -7 155 -14 230 -19 33 -3 78 -7
100 -10 22 -3 72 -7 110 -10 39 -2 88 -7 110 -10 22 -3 74 -7 115 -10 41 -3
95 -7 120 -9 25 -3 78 -7 119 -10 41 -3 76 -7 78 -10 6 -6 -90 -142 -112 -158
-5 -4 -7 -8 -3 -8 7 0 2 -8 -44 -62 -10 -12 -18 -24 -18 -27 0 -3 -14 -22 -30
-41 -16 -19 -30 -38 -30 -41 0 -3 -11 -19 -25 -35 -14 -16 -35 -45 -47 -64
-12 -19 -24 -37 -28 -40 -44 -40 -126 -220 -100 -220 5 0 7 -6 4 -14 -13 -34
69 -90 146 -99 25 -3 626 -6 1337 -6 1286 -1 1291 -1 1286 -21 -3 -11 -10 -20
-15 -20 -7 0 -7 -5 0 -13 8 -10 -4 -38 -47 -112 -58 -99 -63 -125 -25 -125 8
0 14 -4 14 -9 0 -5 8 -11 18 -14 9 -4 35 -18 57 -32 22 -13 47 -28 55 -32 7
-4 78 -44 157 -90 78 -46 147 -83 153 -83 5 0 10 -4 10 -9 0 -5 8 -11 18 -14
23 -8 75 -40 84 -52 4 -5 8 -7 8 -2 0 4 18 -5 40 -19 22 -15 42 -25 43 -23 8
10 64 105 70 119 4 8 19 33 32 55 14 22 28 48 32 58 3 9 9 17 14 17 5 0 9 5 9
10 0 11 159 291 170 300 3 3 12 19 18 35 7 17 20 40 30 52 l17 23 815 0 c903
1 907 1 961 60 32 35 37 74 17 131 -12 34 -64 125 -83 145 -6 6 -28 36 -49 67
-22 32 -43 57 -48 57 -4 0 -8 6 -8 14 0 7 -11 25 -24 39 -14 15 -27 36 -31 47
-3 11 -10 20 -14 20 -4 0 -22 23 -41 51 -18 28 -39 53 -46 56 -8 3 -12 8 -9
13 2 4 -4 16 -13 26 -10 10 -28 35 -42 54 -33 47 -167 232 -180 247 -6 7 -22
29 -36 50 -14 21 -28 40 -32 43 -13 10 -54 72 -50 75 2 3 125 5 274 5 256 1
374 11 374 32 0 5 4 7 9 4 5 -4 21 8 36 26 22 26 26 39 22 72 -8 73 -22 107
-59 150 -10 11 -18 25 -18 32 0 7 -4 14 -8 16 -4 2 -37 44 -72 93 -36 50 -68
95 -73 100 -17 22 -187 256 -247 340 -36 50 -68 92 -72 95 -4 3 4 23 17 45 13
22 38 68 56 103 19 34 37 62 41 62 5 0 8 7 8 15 0 12 15 15 73 15 231 1 305
17 343 75 25 39 3 159 -37 195 -3 3 -16 23 -29 45 -13 21 -32 47 -42 57 -9 9
-24 30 -32 46 -14 27 -13 31 8 63 13 19 26 44 30 57 4 12 12 22 17 22 5 0 9 4
9 9 0 10 153 279 170 298 5 7 10 15 10 18 0 4 29 56 65 116 36 61 65 112 65
115 0 8 65 109 72 112 5 2 6 7 3 12 -2 4 4 18 15 30 11 13 20 27 20 32 0 5 16
34 35 64 19 30 35 58 35 63 0 5 6 16 13 23 6 7 19 27 27 43 8 17 17 32 20 35
4 4 18 29 64 115 6 11 14 22 17 25 3 3 9 12 12 20 4 8 16 29 27 45 11 17 24
40 30 53 6 13 30 57 55 98 25 40 45 78 45 84 0 5 4 10 8 10 4 0 13 12 20 28 7
15 21 41 30 57 57 97 118 202 127 217 14 24 37 65 75 133 18 33 39 67 46 75 7
8 14 22 16 30 2 8 6 17 9 20 3 3 39 64 79 135 41 72 78 132 82 133 5 2 8 9 8
16 0 7 11 29 24 49 13 19 22 38 18 41 -3 3 0 6 5 6 6 0 22 21 36 48 20 38 62
114 136 242 5 8 28 46 50 83 23 38 41 70 41 72 0 3 27 50 60 105 33 56 58 105
55 110 -3 5 -29 22 -58 38 -61 34 -120 68 -162 93 -16 10 -39 23 -50 28 -35
17 -77 48 -75 56 1 5 -11 15 -27 24 -15 9 -29 19 -31 24 -2 4 -8 7 -13 7 -5 0
-26 11 -47 23 -20 13 -58 36 -84 50 -27 15 -68 38 -91 51 l-44 25 -23 -42
c-13 -23 -26 -44 -30 -47 -3 -3 -16 -27 -28 -55 -13 -27 -27 -57 -32 -65 -5
-8 -23 -42 -41 -75 -17 -33 -34 -62 -38 -65 -14 -11 -111 -186 -111 -200 0 -5
-4 -10 -9 -10 -5 0 -11 -8 -15 -17 -10 -31 -45 -87 -63 -103 -25 -20 -103
-154 -103 -175 0 -9 -49 -102 -110 -206 -60 -104 -110 -192 -110 -196 0 -3 -6
-14 -14 -22 -8 -9 -26 -38 -42 -66 -15 -27 -34 -62 -43 -76 -55 -92 -95 -165
-93 -171 1 -5 -2 -8 -6 -8 -4 0 -19 -22 -33 -50 -13 -27 -27 -50 -31 -50 -5 0
-8 -9 -8 -19 0 -11 -4 -21 -9 -23 -4 -1 -25 -34 -46 -73 -21 -38 -41 -72 -44
-75 -3 -3 -17 -25 -30 -50 -14 -25 -41 -73 -62 -107 -21 -35 -40 -72 -44 -83
-3 -11 -11 -20 -16 -20 -5 0 -9 -7 -9 -15 0 -22 -18 -18 -31 6 -9 17 -190 268
-226 314 -37 47 -93 125 -93 130 0 4 -6 12 -12 19 -14 14 -22 25 -115 151 -54
73 -124 149 -184 200 -13 11 -25 29 -25 40 -4 60 -14 124 -24 150 -6 17 -11
31 -10 33 15 26 -137 359 -179 392 -3 3 -25 30 -47 60 -50 67 -176 194 -244
246 l-49 37 40 20 c51 25 159 132 159 157 0 5 4 10 8 10 17 0 46 117 48 190 2
123 -35 218 -120 304 -80 82 -181 124 -297 124 -111 0 -207 -39 -288 -117 -91
-88 -132 -191 -127 -322 2 -61 0 -79 -10 -75 -41 16 -189 51 -264 62 -19 3
-48 8 -65 11 -61 10 -93 13 -232 18 -77 3 -145 6 -150 6 -4 1 -12 0 -18 -1 -5
-1 -39 -4 -75 -6 -36 -2 -85 -6 -110 -9 -25 -3 -59 -7 -75 -9 -17 -2 -44 -6
-60 -10 -17 -4 -43 -9 -60 -12 -38 -6 -178 -42 -200 -50 -14 -6 -15 0 -9 42 3
27 8 52 11 57 2 4 0 7 -4 7 -5 0 -8 12 -7 28 1 33 -22 114 -47 164 -42 83
-137 158 -254 203 -22 8 -169 17 -176 11z m3251 -3222 c0 -3 -5 -14 -11 -25
-10 -20 -11 -20 -30 -3 -27 24 -24 34 11 34 17 0 30 -3 30 -6z"/>
</g>
</svg>
